<svg width="113" height="35" viewBox="0 0 113 35" fill="none" xmlns="http://www.w3.org/2000/svg">
<g clip-path="url(#clip0_194_2)">
<path d="M17.459 22.8867V27H3.83594V22.8867H17.459ZM5.55859 1.40625V27H0.285156V1.40625H5.55859ZM15.6836 11.8301V15.8379H3.83594V11.8301H15.6836ZM17.4414 1.40625V5.53711H3.83594V1.40625H17.4414ZM24.3025 0V27H19.2224V0H24.3025ZM32.8687 24.8555L37.9136 7.98047H43.3452L35.6987 29.8652C35.5347 30.3457 35.312 30.8613 35.0308 31.4121C34.7612 31.9629 34.3921 32.4844 33.9234 32.9766C33.4663 33.4805 32.8862 33.8906 32.1831 34.207C31.4917 34.5234 30.6421 34.6816 29.6343 34.6816C29.1538 34.6816 28.7612 34.6523 28.4566 34.5938C28.1519 34.5352 27.7886 34.4531 27.3667 34.3477V30.6387C27.4956 30.6387 27.6304 30.6387 27.771 30.6387C27.9116 30.6504 28.0464 30.6562 28.1753 30.6562C28.8433 30.6562 29.3882 30.5801 29.8101 30.4277C30.232 30.2754 30.5718 30.041 30.8296 29.7246C31.0874 29.4199 31.2925 29.0215 31.4448 28.5293L32.8687 24.8555ZM30.7593 7.98047L34.8902 21.7617L35.6109 27.123L32.1655 27.4922L25.3277 7.98047H30.7593ZM54.3899 21.7441C54.3899 21.3809 54.2845 21.0527 54.0735 20.7598C53.8626 20.4668 53.47 20.1973 52.8958 19.9512C52.3333 19.6934 51.5188 19.459 50.4524 19.248C49.4915 19.0371 48.595 18.7734 47.763 18.457C46.9427 18.1289 46.2278 17.7363 45.6184 17.2793C45.0208 16.8223 44.552 16.2832 44.2122 15.6621C43.8723 15.0293 43.7024 14.3086 43.7024 13.5C43.7024 12.7031 43.8723 11.9531 44.2122 11.25C44.5638 10.5469 45.0618 9.92578 45.7063 9.38672C46.3626 8.83594 47.1595 8.4082 48.097 8.10352C49.0462 7.78711 50.1126 7.62891 51.2962 7.62891C52.9485 7.62891 54.3665 7.89258 55.5501 8.41992C56.7454 8.94727 57.6595 9.67383 58.2923 10.5996C58.9368 11.5137 59.2591 12.5566 59.2591 13.7285H54.1966C54.1966 13.2363 54.0911 12.7969 53.8802 12.4102C53.6809 12.0117 53.3645 11.7012 52.9309 11.4785C52.5091 11.2441 51.9583 11.127 51.2786 11.127C50.7161 11.127 50.2298 11.2266 49.8196 11.4258C49.4095 11.6133 49.093 11.8711 48.8704 12.1992C48.6595 12.5156 48.554 12.8672 48.554 13.2539C48.554 13.5469 48.6126 13.8105 48.7298 14.0449C48.8587 14.2676 49.0638 14.4727 49.345 14.6602C49.6263 14.8477 49.9895 15.0234 50.4348 15.1875C50.8919 15.3398 51.4544 15.4805 52.1223 15.6094C53.4934 15.8906 54.718 16.2598 55.7962 16.7168C56.8743 17.1621 57.7298 17.7715 58.3626 18.5449C58.9954 19.3066 59.3118 20.3086 59.3118 21.5508C59.3118 22.3945 59.1243 23.168 58.7493 23.8711C58.3743 24.5742 57.8352 25.1895 57.1321 25.7168C56.429 26.2324 55.5852 26.6367 54.6009 26.9297C53.6282 27.2109 52.5325 27.3516 51.3138 27.3516C49.5442 27.3516 48.0442 27.0352 46.8138 26.4023C45.595 25.7695 44.6692 24.9668 44.0364 23.9941C43.4153 23.0098 43.1048 22.002 43.1048 20.9707H47.9036C47.927 21.6621 48.1028 22.2188 48.4309 22.6406C48.7708 23.0625 49.1985 23.3672 49.7141 23.5547C50.2415 23.7422 50.8098 23.8359 51.4192 23.8359C52.0755 23.8359 52.6204 23.748 53.054 23.5723C53.4876 23.3848 53.8157 23.1387 54.0384 22.834C54.2727 22.5176 54.3899 22.1543 54.3899 21.7441ZM66.6827 7.98047V27H61.6026V7.98047H66.6827ZM61.2862 3.02344C61.2862 2.28516 61.544 1.67578 62.0596 1.19531C62.5752 0.714844 63.2666 0.474609 64.1338 0.474609C64.9893 0.474609 65.6748 0.714844 66.1905 1.19531C66.7178 1.67578 66.9815 2.28516 66.9815 3.02344C66.9815 3.76172 66.7178 4.37109 66.1905 4.85156C65.6748 5.33203 64.9893 5.57227 64.1338 5.57227C63.2666 5.57227 62.5752 5.33203 62.0596 4.85156C61.544 4.37109 61.2862 3.76172 61.2862 3.02344ZM79.8719 22.7109V14.2383C79.8719 13.6289 79.7723 13.1074 79.573 12.6738C79.3738 12.2285 79.0633 11.8828 78.6414 11.6367C78.2312 11.3906 77.698 11.2676 77.0418 11.2676C76.4793 11.2676 75.993 11.3672 75.5828 11.5664C75.1727 11.7539 74.8562 12.0293 74.6336 12.3926C74.4109 12.7441 74.2996 13.1602 74.2996 13.6406H69.2371C69.2371 12.832 69.4246 12.0645 69.7996 11.3379C70.1746 10.6113 70.7195 9.97266 71.4344 9.42188C72.1492 8.85938 72.9988 8.41992 73.9832 8.10352C74.9793 7.78711 76.0926 7.62891 77.323 7.62891C78.7996 7.62891 80.1121 7.875 81.2605 8.36719C82.409 8.85938 83.3113 9.59766 83.9676 10.582C84.6355 11.5664 84.9695 12.7969 84.9695 14.2734V22.4121C84.9695 23.4551 85.034 24.3105 85.1629 24.9785C85.2918 25.6348 85.4793 26.209 85.7254 26.7012V27H80.6102C80.3641 26.4844 80.1766 25.8398 80.0477 25.0664C79.9305 24.2812 79.8719 23.4961 79.8719 22.7109ZM80.5398 15.416L80.575 18.2812H77.7449C77.077 18.2812 76.4969 18.3574 76.0047 18.5098C75.5125 18.6621 75.1082 18.8789 74.7918 19.1602C74.4754 19.4297 74.241 19.7461 74.0887 20.1094C73.948 20.4727 73.8777 20.8711 73.8777 21.3047C73.8777 21.7383 73.9773 22.1309 74.1766 22.4824C74.3758 22.8223 74.6629 23.0918 75.0379 23.291C75.4129 23.4785 75.8523 23.5723 76.3562 23.5723C77.118 23.5723 77.7801 23.4199 78.3426 23.1152C78.9051 22.8105 79.3387 22.4355 79.6434 21.9902C79.9598 21.5449 80.1238 21.123 80.1355 20.7246L81.4715 22.8691C81.284 23.3496 81.0262 23.8477 80.698 24.3633C80.3816 24.8789 79.9773 25.3652 79.4852 25.8223C78.993 26.2676 78.4012 26.6367 77.7098 26.9297C77.0184 27.2109 76.198 27.3516 75.2488 27.3516C74.0418 27.3516 72.9461 27.1113 71.9617 26.6309C70.9891 26.1387 70.2156 25.4648 69.6414 24.6094C69.0789 23.7422 68.7977 22.7578 68.7977 21.6562C68.7977 20.6602 68.9852 19.7754 69.3602 19.002C69.7352 18.2285 70.2859 17.5781 71.0125 17.0508C71.7508 16.5117 72.6707 16.1074 73.7723 15.8379C74.8738 15.5566 76.1512 15.416 77.6043 15.416H80.5398ZM92.5689 12.041V27H87.5064V7.98047H92.2525L92.5689 12.041ZM91.8306 16.8223H90.4595C90.4595 15.416 90.6412 14.1504 91.0045 13.0254C91.3677 11.8887 91.8775 10.9219 92.5338 10.125C93.19 9.31641 93.9693 8.70117 94.8716 8.2793C95.7857 7.8457 96.8052 7.62891 97.9302 7.62891C98.8209 7.62891 99.6353 7.75781 100.374 8.01562C101.112 8.27344 101.745 8.68359 102.272 9.24609C102.811 9.80859 103.221 10.5527 103.503 11.4785C103.795 12.4043 103.942 13.5352 103.942 14.8711V27H98.8443V14.8535C98.8443 14.0098 98.7271 13.3535 98.4927 12.8848C98.2584 12.416 97.9127 12.0879 97.4556 11.9004C97.0103 11.7012 96.4595 11.6016 95.8033 11.6016C95.1236 11.6016 94.5318 11.7363 94.0279 12.0059C93.5357 12.2754 93.1255 12.6504 92.7974 13.1309C92.481 13.5996 92.2408 14.1504 92.0767 14.7832C91.9127 15.416 91.8306 16.0957 91.8306 16.8223ZM106.778 24.5566C106.778 23.8066 107.035 23.1797 107.551 22.6758C108.078 22.1719 108.776 21.9199 109.643 21.9199C110.51 21.9199 111.201 22.1719 111.717 22.6758C112.244 23.1797 112.508 23.8066 112.508 24.5566C112.508 25.3066 112.244 25.9336 111.717 26.4375C111.201 26.9414 110.51 27.1934 109.643 27.1934C108.776 27.1934 108.078 26.9414 107.551 26.4375C107.035 25.9336 106.778 25.3066 106.778 24.5566Z" fill="white"/>
</g>
<defs>
<clipPath id="clip0_194_2">
<rect width="113" height="35" fill="white"/>
</clipPath>
</defs>
</svg>
